DBRep_DrawableShape

CASCADE Topology V3, (c) Open Cascade
Locations 0
Curve2ds 4
1 6.2831853071795862 0 0 1 
1 0 0 0 1 
1 0 0 1 0 
1 0 2000 1 0 
Curves 3
1 -999.3908270190974 3.2797270697865991e-14 2000 -0.00030458647632261002 0 -0.99999995361353822 
2 7.914876789831913e-15 3.2797270697865991e-14 2000 -0 -0 -1 -1 0 0 0 1 -0 999.3908270190974
2 7.914876789831913e-15 3.2797270697865991e-14 9.2772923835582333e-05 -0 -0 -1 -1 0 0 0 1 -0 999.99999997174257
Polygon3D 0
PolygonOnTriangulations 0
Surfaces 1
3 7.914876789831913e-15 3.2797270697865991e-14 2000 -0 -0 -1 -1 0 0 0 1 -0 999.3908270190974
0.00030458648103217305
Triangulations 0

TShapes 7
Ve
1e-07
-999.390827019097 3.2797270697866e-14 2000
0 0

0101101
*
Ve
1e-07
-999.999999971743 3.2797270697866e-14 9.27729238355823e-05
0 0

0101101
*
Ed
 1e-07 1 1 0
1  1 0 0 2000
3  1 2C0 1 0 0 2000
0

0101000
+7 0 -6 0 *
Ed
 1e-07 1 1 0
1  2 0 0 6.28318530717959
2  3 1 0 0 6.28318530717959
0

0101000
+7 0 -7 0 *
Ed
 1e-07 1 1 0
1  3 0 0 6.28318530717959
2  4 1 0 0 6.28318530717959
0

0101000
+6 0 -6 0 *
Wi

0101100
-5 0 +4 0 +5 0 -3 0 *
Fa
0  1e-07 1 0

1101000
+2 0 *

+1 0 